<svg width="24" height="24" viewBox="0 0 24 24" fill="none" xmlns="http://www.w3.org/2000/svg">
<path d="M11.5108 8.2784C11.6612 8.1248 11.6612 7.8736 11.5108 7.72L6.93803 3.0128C6.78763 2.8592 6.54603 2.8592 6.39563 3.0128L5.48683 3.9488C5.33643 4.1024 5.33643 4.3536 5.48683 4.5072L7.65003 6.7328H1.82443C1.61323 6.7328 1.44043 6.9088 1.44043 7.128V8.7056C1.44043 8.9232 1.61323 9.1008 1.82443 9.1008H7.81003L5.48683 11.4928C5.33643 11.6464 5.33643 11.8976 5.48683 12.0512L6.39563 12.9872C6.54603 13.1408 6.78763 13.1408 6.93803 12.9872L11.5108 8.2784ZM9.30603 2.944H12.61V13.0576H9.30603V15H13.5812C14.1188 15 14.5524 14.5664 14.5524 14.0272V1.9728C14.5524 1.4352 14.1188 1 13.5812 1H9.30603V2.944Z" fill="white"/>
</svg>